<svg width="20" height="20" viewBox="0 0 20 20" fill="none" xmlns="http://www.w3.org/2000/svg">
<path d="M18.9318 13.2647C17.2452 14.6141 13.1523 14.1383 12.9624 14.1385C10.8149 13.9056 9.50644 13.3069 8.15624 11.6282C6.49171 9.96888 6.49445 7.20055 6.49554 6.09323C6.49664 4.98591 7.61014 2.21652 8.74974 0.60531C8.91304 0.37437 9.27684 0.18794 9.48854 0C7.61234 0.00188 5.43257 0.81428 3.85205 2.14765C2.80466 2.96339 1.93036 3.97865 1.28021 5.13414C0.630066 6.28964 0.217106 7.56228 0.0654261 8.87758C-0.0862439 10.193 0.026416 11.5248 0.396836 12.7952C0.767246 14.0657 1.38799 15.2494 2.22283 16.2771C3.05765 17.3049 4.08987 18.1562 5.25914 18.7812C6.42841 19.4062 7.71134 19.7926 9.03304 19.9176C10.3547 20.0427 11.6887 19.904 12.957 19.5095C14.2255 19.1151 15.4027 18.4729 16.4203 17.6205C18.1546 16.2708 19.358 14.3565 19.8192 12.2132C19.5656 12.597 19.2677 12.9499 18.9318 13.2647Z" fill="#B7B5BD"/>
</svg>
