<svg width="20" height="20" viewBox="0 0 20 20" fill="none" xmlns="http://www.w3.org/2000/svg">
<g clip-path="url(#clip0)">
<path d="M15.2589 10.1516C15.2589 13.0438 12.9143 15.3884 10.022 15.3884C7.12982 15.3884 4.78516 13.0438 4.78516 10.1516C4.78516 7.25934 7.12978 4.91467 10.022 4.91467C12.9143 4.91467 15.2589 7.25929 15.2589 10.1516Z" fill="#B7B5BD"/>
<path d="M8.80078 3.2583L10.1146 -0.123047L11.2421 3.2583H8.80078Z" fill="#B7B5BD"/>
<path d="M8.80078 16.7422L10.1146 20.1231L11.2421 16.7422H8.80078Z" fill="#B7B5BD"/>
<path d="M3.25782 11.3715L-0.123047 10.0569L3.25782 8.93018V11.3715Z" fill="#B7B5BD"/>
<path d="M16.7422 11.3715L20.1222 10.0569L16.7422 8.93018V11.3715Z" fill="#B7B5BD"/>
<path d="M4.38472 6.08081L2.92383 2.76172L6.11142 4.3546L4.38472 6.08081Z" fill="#B7B5BD"/>
<path d="M13.9199 15.6172L17.2414 17.0773L15.6467 13.8896L13.9199 15.6172Z" fill="#B7B5BD"/>
<path d="M6.20282 15.7379L2.88281 17.1979L4.47657 14.0104L6.20282 15.7379Z" fill="#B7B5BD"/>
<path d="M15.7364 6.20221L17.1955 2.88135L14.0098 4.47644L15.7364 6.20221Z" fill="#B7B5BD"/>
</g>
<defs>
<clipPath id="clip0">
<rect width="20" height="20" fill="white"/>
</clipPath>
</defs>
</svg>
